<?xml version="1.0" ?><svg enable-background="new 0 0 128 128" id="icons" version="1.1" viewBox="0 0 128 128" xml:space="preserve" xmlns="http://www.w3.org/2000/svg" xmlns:xlink="http://www.w3.org/1999/xlink"><g id="document"><path d="M50,118l-18.2-1.3c-0.5,0-1,0-1.5,0.1l-2.3,0.3   c-2.9,0.4-5.8-1-7.2-3.6l-10-18.5c-0.5-1-0.2-2.3,0.8-2.8l1.7-0.9c1-0.5,2.3-0.2,2.8,0.8l7.5,14c0.5,1,0.2,2.3-0.8,2.8h0   c-0.9,0.5-2.1,0.1-2.6-0.8l-3.3-6.4" fill="none" stroke="#4FC3F7" stroke-miterlimit="10" stroke-width="2"/><path d="M110,87V72c0-2.2,1.8-4,4-4h0c2.2,0,4,1.8,4,4v21.9   c0,1.1-0.9,2.1-2.1,2.1h-1.9c-1.1,0-2.1-0.9-2.1-2.1c0.1-4.2,0.9-16.9,0.9-16.9c0-0.6,0.5-1.1,1.1-1.1h0c1.1,0,2,0.8,2.1,1.9   l0.5,7.2" fill="none" stroke="#03A9F4" stroke-miterlimit="10" stroke-width="2"/><g><path d="M80,17v17.5c0,1.4,1.1,2.5,2.5,2.5h2    c1.4,0,2.5-1.1,2.5-2.5v-7.7" fill="none" stroke="#C62828" stroke-miterlimit="10" stroke-width="2"/><line fill="none" stroke="#B71C1C" stroke-miterlimit="10" stroke-width="2" x1="87" x2="87" y1="26.8" y2="12.5"/><path d="M96.6,17.9c-0.5-1.3-2-2-3.3-1.4l-18.5,8.1" fill="none" stroke="#D32F2F" stroke-miterlimit="10" stroke-width="2"/></g><g id="XMLID_6_"><g><polygon fill="#EEEEEE" points="93,28.3 83.9,33.1 75.9,18    "/><path d="M93,28.3V110H35V22.8L45.2,33c1.2,1.2,3.1,1.2,4.2,0l1-1c1.4-1.4,1.6-3.7,0.3-5.3L44,18h32l8,15.1     L93,28.3z" fill="#F5F5F5"/><path d="M50.8,26.7c1.2,1.6,1.1,3.9-0.3,5.3l-1,1c-1.2,1.2-3.1,1.2-4.2,0L35,22.8V18h9L50.8,26.7z" fill="#F5F5F5"/></g><g><path d="M44,18l6.8,8.7c1.2,1.6,1.1,3.9-0.3,5.3l-1,1     c-1.2,1.2-3.1,1.2-4.2,0L35,22.8" fill="none" stroke="#EEEEEE" stroke-miterlimit="10" stroke-width="2"/><polyline fill="none" points="75.9,18 44,18      35,18 35,22.8 35,110 93,110 93,28.3    " stroke="#B0BEC5" stroke-linejoin="round" stroke-miterlimit="10" stroke-width="2"/><polygon fill="none" points="93,28.3      83.9,33.1 75.9,18    " stroke="#B0BEC5" stroke-linejoin="round" stroke-miterlimit="10" stroke-width="2"/></g></g><g><line fill="none" stroke="#616161" stroke-dasharray="10,2,23" stroke-linejoin="round" stroke-miterlimit="10" stroke-width="2" x1="50" x2="85" y1="50" y2="50"/><line fill="none" stroke="#616161" stroke-dasharray="6,2,19,2" stroke-linejoin="round" stroke-miterlimit="10" stroke-width="2" x1="50" x2="85" y1="56" y2="56"/><line fill="none" stroke="#616161" stroke-dasharray="10,2,23" stroke-linejoin="round" stroke-miterlimit="10" stroke-width="2" x1="85" x2="50" y1="62" y2="62"/><line fill="none" stroke="#616161" stroke-dasharray="12,2,16,2" stroke-linejoin="round" stroke-miterlimit="10" stroke-width="2" x1="50" x2="85" y1="68" y2="68"/><line fill="none" stroke="#616161" stroke-dasharray="10,2,12,2" stroke-linejoin="round" stroke-miterlimit="10" stroke-width="2" x1="85" x2="50" y1="74" y2="74"/><line fill="none" stroke="#616161" stroke-dasharray="10,2,23" stroke-linejoin="round" stroke-miterlimit="10" stroke-width="2" x1="50" x2="85" y1="80" y2="80"/><line fill="none" stroke="#616161" stroke-dasharray="12,2,16,2" stroke-linejoin="round" stroke-miterlimit="10" stroke-width="2" x1="85" x2="50" y1="86" y2="86"/><line fill="none" stroke="#616161" stroke-dasharray="6,2,19,2" stroke-linejoin="round" stroke-miterlimit="10" stroke-width="2" x1="50" x2="85" y1="92" y2="92"/><line fill="none" stroke="#616161" stroke-linejoin="round" stroke-miterlimit="10" stroke-width="2" x1="50" x2="73" y1="98" y2="98"/></g><path d="M102.9,109.3c0.1-0.4,0.1-0.8,0.1-1.3   c0-5.5-4.5-10-10-10s-10,4.5-10,10s4.5,10,10,10c5,0,9.1-4.1,9.1-9.1S98,99.8,93,99.8c-4.1,0-7.4,3.3-7.4,7.4c0,3.7,3,6.8,6.8,6.8   c2.9,0,5.2-2.3,5.2-5.2c0-2.9-2.3-5.2-5.2-5.2c-2.6,0-4.7,1.9-5.1,4.4" fill="none" stroke="#4FC3F7" stroke-miterlimit="10" stroke-width="2"/><g><path d="M87,12.5c0-1.4-1.1-2.5-2.5-2.5l0,0    c-1.4,0-2.5,1.1-2.5,2.5v10.4c0,2.9,3,4.8,5.6,3.7l8.4-3.7c1.2-0.5,1.8-1.9,1.3-3.2l-0.7-1.8" fill="none" stroke="#E53935" stroke-miterlimit="10" stroke-width="2"/></g><path d="M35,22.8l-6.1-6.1c-0.8-0.8-0.8-2,0-2.8l1.4-1.4   c0.8-0.8,2-0.8,2.8,0l12,12c0.4,0.4,0.4,1,0,1.4l-1.3,1.3c-0.4,0.4-1.1,0.4-1.5-0.1l-5.1-6.3" fill="none" stroke="#4FC3F7" stroke-miterlimit="10" stroke-width="2"/><path d="M23,27v15c0,2.2-1.8,4-4,4h0c-2.2,0-4-1.8-4-4V21   c0-1.7,1.3-3,3-3h0c1.7,0,3,1.3,3,3v14.9c0,1.1-0.9,2.1-2.1,2.1h0c-1.1,0-2-0.8-2.1-1.9l-0.5-7.2" fill="none" stroke="#03A9F4" stroke-miterlimit="10" stroke-width="2"/></g></svg>